/* XPM */
static char *baef462368e249f7a5a83b4bc643e8e0gRjNvNBeRw1b8Fi0[] = {
/* columns rows colors chars-per-pixel */
"32 32 82 1 ",
"  c #C0D470",
". c #BED36F",
"X c #B6CE6C",
"o c #A9C565",
"O c #A4C263",
"+ c #A8C565",
"@ c #BDD26F",
"# c #C9D772",
"$ c #D9DC75",
"% c #EAE178",
"& c #DADC75",
"* c #BAD06D",
"= c #A5C364",
"- c #D7DB74",
"; c #E7E077",
": c #E7E078",
"> c #C4D571",
", c #D3DA74",
"< c #D5DA74",
"1 c #BED26F",
"2 c #B5CD6B",
"3 c #ABC666",
"4 c #BFD36F",
"5 c #C6D671",
"6 c #D1D973",
"7 c #C7D671",
"8 c #B3CC6A",
"9 c #ADC867",
"0 c #BFD370",
"q c #B1CA69",
"w c #B8CF6C",
"e c #B8CF6D",
"r c #B0CA69",
"t c #ACC767",
"y c #B6CE6B",
"u c #AEC968",
"i c #A8C465",
"p c #BBD16E",
"a c #A6C364",
"s c #AFC968",
"d c #C8D672",
"f c #B7CE6C",
"g c #A5C263",
"h c #C2D570",
"j c #B3CB6A",
"k c #C3D571",
"l c #DDDD75",
"z c #A7C464",
"x c #BCD16E",
"c c #B4CC6A",
"v c #D0D973",
"b c #E0DE76",
"n c #C1D570",
"m c #C4D772",
"M c #C5D772",
"N c #C3D671",
"B c #C4D671",
"V c #D1DF77",
"C c #D2E077",
"Z c #CBDB74",
"A c #C6D872",
"S c #CEDE76",
"D c #D0DF76",
"F c #CEDD75",
"G c #C8D973",
"H c #CCDC75",
"J c #C5D872",
"K c #D2DA73",
"L c #D5DB74",
"P c #CED873",
"I c #E5E077",
"U c #CFD973",
"Y c #C2D571",
"T c #C7D973",
"R c #C9DA74",
"E c #C9DA73",
"W c #D2DA74",
"Q c #D6DB74",
"! c #C1D571",
"~ c #CFDE76",
"^ c #C8DA73",
"/ c #CADB74",
/* pixels */
"     .XoOOOOOOOOO+@        #$%%&",
"     *=OOOOOOOOOO+@        -;%%:",
"     *=OOOOOOOOOO+@        >,%%<",
"     12oOOOOOOOO3X4         5667",
"       8999999992               ",
"               .1110            ",
"               qooow            ",
"    errrr80  @q+OOOty           ",
"   *uOOOOiy@ paOOOOOs          d",
"   tOOOOOOOf pigOOO=r         h&",
"   tOOOOOOOf 0ptOOOj@        kl;",
"   ftOOOOzjx   wcccx         hvb",
"    fttttr4                    6",
"                                ",
"                                ",
"                                ",
"                                ",
"                                ",
"                                ",
"                                ",
"         nmMMMMMN               ",
"         BVCCCCCZ               ",
"        ASCCCCCCDFFM            ",
"        GCCCCCCCCCCHJ        hKL",
"        GCCCCCCCCCCCZ       >PI%",
"        GCCCCCCCCCCCZ       U%%%",
"        YTVCCCCCCCCRN       >PI%",
"         YERRRRRRRRN         hWQ",
"     nmmmmm!                    ",
"     BVCCCCA                    ",
"    AFCCCCC~T                   ",
"    ^CCCCCCC/                   "
};
