/* XPM */
static char *_794bb50d2db4cbae8fcec6f88149ad7b2K5Vmwo0MWijrAo[] = {
/* columns rows colors chars-per-pixel */
"32 32 170 2 ",
"   c #C0D470",
".  c #BED36F",
"X  c #B6CE6C",
"o  c #A9C565",
"O  c #A4C263",
"+  c #A8C565",
"@  c #BDD26F",
"#  c #C9D772",
"$  c #D9DC75",
"%  c #EAE178",
"&  c #DADC75",
"*  c #BAD06D",
"=  c #A5C364",
"-  c #D7DB74",
";  c #E7E077",
":  c #E7E078",
">  c #C4D571",
",  c #D3DA74",
"<  c #D5DA74",
"1  c #BED26F",
"2  c #B5CD6B",
"3  c #ABC666",
"4  c #BFD36F",
"5  c #C6D671",
"6  c #D1D973",
"7  c #C7D671",
"8  c #B3CC6A",
"9  c #ADC867",
"0  c #BFD370",
"q  c #B1CA69",
"w  c #B1C768",
"e  c #B8CF6D",
"r  c #B0CA69",
"t  c #89A155",
"y  c #5D913B",
"u  c #6B7E4A",
"i  c #B5C86B",
"p  c #ABBC65",
"a  c #3B4432",
"s  c #A0AF60",
"d  c #AEC968",
"f  c #A8C465",
"g  c #B6CE6B",
"h  c #BBD16E",
"j  c #A6C364",
"k  c #819651",
"l  c #68AC40",
"z  c #455C3D",
"x  c #547737",
"c  c #3C7243",
"v  c #6B7245",
"b  c #C8D672",
"n  c #ACC767",
"m  c #B7CE6C",
"M  c #A5C263",
"N  c #619F3C",
"B  c #3A4A35",
"V  c #4B5D34",
"C  c #5EB353",
"Z  c #3D6345",
"A  c #96A35A",
"S  c #C2D570",
"D  c #4D7933",
"F  c #6EC24C",
"G  c #7CD349",
"H  c #429058",
"J  c #47583C",
"K  c #C3D571",
"L  c #DDDD75",
"P  c #A7C464",
"I  c #B3CB6A",
"U  c #BCD16E",
"Y  c #AEC367",
"T  c #8D9D56",
"R  c #5A371F",
"E  c #514D29",
"W  c #7AD54E",
"Q  c #83E04C",
"!  c #71C950",
"~  c #31684A",
"^  c #D0D973",
"/  c #E0DE76",
"(  c #73683A",
")  c #8A451A",
"_  c #FC791A",
"`  c #AF6632",
"'  c #67BE51",
"]  c #3E8250",
"[  c #377E56",
"{  c #39553C",
"}  c #999D55",
"|  c #9F5D25",
" . c #E36A1D",
".. c #D25825",
"X. c #F2711D",
"o. c #A15B35",
"O. c #426144",
"+. c #284B3A",
"@. c #39855A",
"#. c #414230",
"$. c #E76920",
"%. c #833723",
"&. c #6E7245",
"*. c #7A8D52",
"=. c #616740",
"-. c #E76D1C",
";. c #EB6B1F",
":. c #825125",
">. c #F9761B",
",. c #D65B24",
"<. c #57412D",
"1. c #8F9150",
"2. c #A6521A",
"3. c #D95E23",
"4. c #E06322",
"5. c #993E25",
"6. c #808B50",
"7. c #DD6022",
"8. c #F5741C",
"9. c #CB5327",
"0. c #99462A",
"q. c #D1661A",
"w. c #EE6E1E",
"e. c #6E2F22",
"r. c #776E41",
"t. c #7B3F1A",
"y. c #C04F26",
"u. c #8E4329",
"i. c #6E5234",
"p. c #B8CA6C",
"a. c #575A3A",
"s. c #C44D29",
"d. c #715435",
"f. c #8C9254",
"g. c #D2E077",
"h. c #CBDB74",
"j. c #6E7446",
"k. c #632B21",
"l. c #675939",
"z. c #A3AC60",
"x. c #BBC66B",
"c. c #D0DF76",
"v. c #CEDD75",
"b. c #C5D772",
"n. c #C8D973",
"m. c #696C43",
"M. c #AFB965",
"N. c #CCDC75",
"B. c #C5D872",
"V. c #D2DA73",
"C. c #D5DB74",
"Z. c #CED873",
"A. c #E5E077",
"S. c #CFD973",
"D. c #C2D571",
"F. c #C7D973",
"G. c #D1DF77",
"H. c #C9DA74",
"J. c #C3D671",
"K. c #C9DA73",
"L. c #D2DA74",
"P. c #D6DB74",
"I. c #C1D570",
"U. c #C4D772",
"Y. c #C1D571",
"T. c #C4D671",
"R. c #C6D872",
"E. c #CFDE76",
"W. c #C8DA73",
"Q. c #CADB74",
/* pixels */
"          . X o O O O O O O O O O + @                 # $ % % & ",
"          * = O O O O O O O O O O + @                 - ; % % : ",
"          * = O O O O O O O O O O + @                 > , % % < ",
"          1 2 o O O O O O O O O 3 X 4                   5 6 6 7 ",
"              8 9 9 9 9 9 9 9 9 2                               ",
"                              . 1 1 1 0                         ",
"                              q o o o w                         ",
"        e r r r r 8 0     @ q + O O t y u i p a s               ",
"      * d O O O O f g @   h j O O O k l z s x c v             b ",
"      n O O O O O O O m   h f M O O k N B V C Z A           S & ",
"      n O O O O O O O m   0 h n O O k D F G H J           K L ; ",
"      m n O O O O P I U       Y T R E W Q ! ~ A           S ^ / ",
"        m n n n n r 4       A ( ) _ ` H ' ] [ { s             6 ",
"                          } |  ...X._ o.O.+.@.@.#.              ",
"                        A | _ _ _ $.X.%.&.*.=.{ =.              ",
"                      s | -...;._ _ ..%.A     p                 ",
"                    p :._ _ _ ;.$.>.,.<.                        ",
"                    1.2.3.>._ _ 4...5.6.                        ",
"                  A | _ >.7._ 8.9.0.6.                          ",
"                  ( q._ _ w.9.9.e.r.                            ",
"                  t._ $...y.u.i.p.                              ",
"                a.s.s.5.e.d.f.g.h.                              ",
"                j.s.k.l.z.x.g.g.c.v.v.b.                        ",
"                n.m.M.g.g.g.g.g.g.g.g.N.B.                S V.C.",
"                n.g.g.g.g.g.g.g.g.g.g.g.h.              > Z.A.% ",
"                n.g.g.g.g.g.g.g.g.g.g.g.h.              S.% % % ",
"                D.F.G.g.g.g.g.G.G.G.g.H.J.              > Z.A.% ",
"                  D.K.H.H.H.H.H.H.H.H.J.                  S L.P.",
"          I.U.U.U.U.U.Y.                                        ",
"          T.G.g.g.g.g.R.                                        ",
"        R.v.g.g.g.g.g.E.F.                                      ",
"        W.g.g.g.g.g.g.g.Q.                                      "
};
