/* XPM */
static char *f0bec56d3e3f4aaba8a22a7d13103ef39WGbNdCLw6tlSpLm[] = {
/* columns rows colors chars-per-pixel */
"32 32 127 2 ",
"   c #080103",
".  c #170405",
"X  c #100907",
"o  c #240410",
"O  c #330617",
"+  c #3E0816",
"@  c #330618",
"#  c #390F1B",
"$  c #241D13",
"%  c #381F1C",
"&  c #320F37",
"*  c #33123D",
"=  c #420F0E",
"-  c #46110E",
";  c #4C120E",
":  c #55150F",
">  c #59140F",
",  c #420A15",
"<  c #4B0C16",
"1  c #4E0E18",
"2  c #540D13",
"3  c #5B0E13",
"4  c #4E101A",
"5  c #571610",
"6  c #5D1116",
"7  c #551C1C",
"8  c #5A1A1A",
"9  c #641113",
"0  c #6C1314",
"q  c #65161A",
"w  c #6A151B",
"e  c #6F1A1D",
"r  c #731513",
"t  c #741817",
"y  c #7D1B17",
"u  c #741B1B",
"i  c #55331E",
"p  c #58361F",
"a  c #440E25",
"s  c #400E29",
"d  c #5E1527",
"f  c #57152D",
"g  c #5C1528",
"h  c #43153F",
"j  c #4A1538",
"k  c #49183F",
"l  c #511737",
"z  c #631522",
"x  c #741E21",
"c  c #462123",
"v  c #56392D",
"b  c #494B29",
"n  c #5A4125",
"m  c #5B5F34",
"M  c #694832",
"N  c #765B3A",
"B  c #556033",
"V  c #5D6536",
"C  c #696D3B",
"Z  c #72623F",
"A  c #6D733F",
"S  c #3D1749",
"D  c #331B5A",
"F  c #3C2056",
"G  c #362165",
"H  c #401541",
"J  c #4D1B42",
"K  c #471C4B",
"L  c #472550",
"P  c #44235D",
"I  c #432767",
"U  c #462B63",
"Y  c #412769",
"T  c #533364",
"R  c #583564",
"E  c #422C73",
"W  c #6F7740",
"Q  c #7F7547",
"!  c #747C43",
"~  c #8A1F17",
"^  c #8B2017",
"/  c #85201B",
"(  c #8D231B",
")  c #91241C",
"_  c #9A251A",
"`  c #A1291C",
"'  c #AB2C1C",
"]  c #B52F1D",
"[  c #817648",
"{  c #877849",
"}  c #89824D",
"|  c #86904E",
" . c #8E9151",
".. c #939253",
"X. c #929F55",
"o. c #999B57",
"O. c #9DAC5B",
"+. c #A0AF5D",
"@. c #ACB663",
"#. c #AEBF65",
"$. c #B2BF67",
"%. c #A4C263",
"&. c #A8C565",
"*. c #B6CE6C",
"=. c #BDD26E",
"-. c #BFD370",
";. c #C0D470",
":. c #C9D772",
">. c #CED873",
",. c #D3DA74",
"<. c #DBDC75",
"1. c #E0DE76",
"2. c #E6E077",
"3. c #E7E078",
"4. c #EAE178",
"5. c #423485",
"6. c #43378A",
"7. c #563E82",
"8. c #463B91",
"9. c #483F98",
"0. c #4F4295",
"q. c #4F46A1",
"w. c #5449A1",
"e. c #574BA1",
"r. c #5A4DA1",
"t. c #6A55A2",
"y. c #725AA2",
/* pixels */
";.;.;.;.;.=.*.&.%.%.%.%.%.%.%.%.%.&.=.;.;.;.;.;.;.;.;.:.<.4.4.<.",
";.;.;.;.;.=.%.%.%.%.%.%.%.%.%.%.%.&.=.;.;.;.;.;.;.;.;.,.2.4.4.3.",
";.;.;.;.;.=.B                                   b #.;.;.,.4.4.,.",
";.;.;.;.;.=.V                                   b #.;.;.;.,.,.;.",
";.;.;.;.O.W n ; : : - - : : : : : ; = ; : : : ; i C X.;.;.;.;.;.",
";.;.;.-.! X : _ ' ' ) ( ' ] ] ] ] _ / ` ] ] ' _ 9 . m =.;.;.;.;.",
";.;.+.C n 5 9 r y y 0 0 y y y y y t 0 t y y y r 0 > p m X.;.;.;.",
";.;.| $ = ^ r 2 2 2 2 2 2 2 2 2 2 2 2 2 2 2 2 2 0 ~ :   A ;.;.;.",
";.;. .% , 0 0 9 9 9 3 3 q w 0 9 9 3 2 6 9 9 9 9 0 0 < o Q ;.;.:.",
";.;...c , 2 9 r r 0 3 6 e u r r r 9 2 9 r r r r 0 3 < O Q ;.;.<.",
";.;...c < 0 0 r r 0 3 6 e u r r r 9 2 9 r r r r r 0 2 O Q ;.<.2.",
";.;...c 1 r r r r 0 3 6 e t t r r 9 2 9 r r r r r r 2 O Q ;.,.1.",
";.;...c 4 u t r r 0 6 6 0 t u t r 9 2 9 r r r r r r 2 O Q ;.;.,.",
";.;...c 4 x t r r e 6 3 0 t u t r 9 2 9 r r e d z r 2 O Q ;.;.;.",
";.;...c 4 x t r t u 6 3 0 t u t r 9 2 9 r r z H j e 2 O Q ;.;.;.",
";.;...c 1 u t r t u 6 3 0 t x u r 9 2 9 e g J Y P l a O Q ;.;.;.",
";.;...c 1 r r r u u 6 3 0 t u t r 9 2 9 w h G 8.5.D & O Q ;.;.;.",
";.;...c 1 r r r u x 6 3 0 r t r r 9 2 9 w h G 8.0.7.L O Q ;.;.;.",
";.;...c 1 r r r u x 6 3 0 r r r r 9 2 9 w h G 8.r.y.R @ Q ;.;.;.",
";.;...c 1 r r r u x 6 3 0 r r r r 9 2 9 w h G 8.r.y.R @ Q ;.;.;.",
";.;...c 1 r r r t u 6 3 0 r r r r 9 2 9 w h G 8.w.t.T @ Q ;.;.;.",
";.;...c 1 r r r t u 6 3 0 r r r r 9 2 9 w h G 8.q.w.U @ Q ;.;.;.",
";.;...c 1 r r r t u 6 3 0 r t r r 9 2 9 w h G 8.9.6.F O Q ;.;.;.",
";.;...c 4 u t r r 0 3 3 0 t u t r 9 2 9 w h G 8.6.G * O Q ;.,.,.",
";.;...c 4 x t r r 0 3 3 0 t x u r 9 2 9 e f K E I k s O [ >.2.4.",
";.;...c 4 x t r r 0 3 3 0 t x u r 9 2 9 r r d S k w 2 O { 4.4.4.",
";.;...c 1 u r r r 0 3 3 0 t u t r 9 2 9 r r w f d r 2 O [ >.2.4.",
";.;...c 1 r r r r 0 3 3 0 t u t r 9 2 9 r r r r r r 2 O Q ;.,.,.",
";.;...c 1 r r r r 0 3 3 0 r t r r 9 2 9 r r r r r r 2 O Q ;.;.;.",
";.;.o.v 7 0 0 0 0 9 2 2 9 0 0 0 0 3 2 9 0 0 0 0 0 0 8 c } ;.;.;.",
";.;.$.o.N 4 < < < , , , , < < < < , + , < < < , < < M ..@.;.;.;.",
";.;.;.;.} # O O O O O O O O O O O O O O O O O O O O Z -.;.;.;.;."
};
