/* XPM */
static char *_80616c9eeec43a6a74ee876e2654002iWTJTsSzzW4tgznD[] = {
/* columns rows colors chars-per-pixel */
"32 32 156 2 ",
"   c #261F0F",
".  c #2D2514",
"X  c #332A18",
"o  c #382F1C",
"O  c #36301A",
"+  c #3B381C",
"@  c #3A341D",
"#  c #242325",
"$  c #2A2827",
"%  c #342B22",
"&  c #3F3521",
"*  c #3A3C2E",
"=  c #31332A",
"-  c #462E1E",
";  c #413723",
":  c #4A3B27",
">  c #4B3322",
",  c #563827",
"<  c #533424",
"1  c #3D4231",
"2  c #4E442F",
"3  c #4E4B29",
"4  c #454125",
"5  c #474F36",
"6  c #484239",
"7  c #544630",
"8  c #5B4D35",
"9  c #594538",
"0  c #5B4330",
"q  c #4E5339",
"w  c #515435",
"e  c #5C5A32",
"r  c #53583C",
"t  c #654C3D",
"y  c #714333",
"u  c #764D3A",
"i  c #68563E",
"p  c #79523E",
"a  c #5F6937",
"s  c #57613D",
"d  c #5A613F",
"f  c #616035",
"g  c #666B3B",
"h  c #6D773E",
"j  c #464548",
"k  c #544D40",
"l  c #5A595B",
"z  c #6B5A42",
"x  c #7C5742",
"c  c #645D59",
"v  c #5C6340",
"b  c #5F6D42",
"n  c #666D44",
"m  c #75644A",
"M  c #796B4F",
"N  c #627043",
"B  c #6E7648",
"V  c #6F7849",
"C  c #747A4B",
"Z  c #6C6557",
"A  c #6F735B",
"S  c #605F65",
"D  c #68676C",
"F  c #6D6D6A",
"G  c #656664",
"H  c #797E65",
"J  c #787C6A",
"K  c #7C7A72",
"L  c #7A7A7B",
"P  c #84684F",
"I  c #83664D",
"U  c #866A51",
"Y  c #8B7559",
"T  c #8E7B5D",
"R  c #877458",
"E  c #907D5F",
"W  c #8F7F61",
"Q  c #807A6F",
"!  c #907E60",
"~  c #79844E",
"^  c #798D4F",
"/  c #7F8A51",
"(  c #808C51",
")  c #869354",
"_  c #909B51",
"`  c #91A455",
"'  c #95A35B",
"]  c #98A75D",
"[  c #9BAA5A",
"{  c #95AA58",
"}  c #9EB55E",
"|  c #A4B35E",
" . c #928263",
".. c #84867D",
"X. c #9F9176",
"o. c #A2947B",
"O. c #A0AF61",
"+. c #A3BF62",
"@. c #ACBC63",
"#. c #A4C263",
"$. c #A9C565",
"%. c #ADC867",
"&. c #B6CD6C",
"*. c #B6C96A",
"=. c #BCD16E",
"-. c #BFD370",
";. c #C0D470",
":. c #C9D772",
">. c #C6D872",
",. c #CCDA74",
"<. c #D3DA74",
"1. c #DBDC75",
"2. c #E0DE76",
"3. c #D2E077",
"4. c #E6E077",
"5. c #E7E078",
"6. c #EAE178",
"7. c #7E7D84",
"8. c #807F82",
"9. c #868682",
"0. c #8B8D85",
"q. c #88878D",
"w. c #91938E",
"e. c #8E8D95",
"r. c #929393",
"t. c #979894",
"y. c #95949A",
"u. c #9A9A9D",
"i. c #A4A29D",
"p. c #ABA79F",
"a. c #9F9FA0",
"s. c #AEADAF",
"d. c #ADACB4",
"f. c #B5B4BA",
"g. c #BEBDBA",
"h. c #C2BBAD",
"j. c #C3BFB8",
"k. c #CAC4BA",
"l. c #C9C8C6",
"z. c #C4C3CB",
"x. c #C8C7CB",
"c. c #C9C9CC",
"v. c #C8C7D2",
"b. c #CDCCD3",
"n. c #D0CFDA",
"m. c #D4D3D5",
"M. c #D5D4DE",
"N. c #DBDBDB",
"B. c #E0DFDC",
"V. c #D7D6E0",
"C. c #DCDBE4",
"Z. c #DFDEE8",
"A. c #E0DFE9",
"S. c #E6E6E7",
"D. c #E5E5E8",
"F. c #E8E7EE",
/* pixels */
";.;.;.;.;.=.&.$.#.#.#.#.#.#.#.#.#.$.=.;.;.;.;.;.;.;.;.:.1.6.6.1.",
";.;.;.;.;.=.#.#.#.#.#.^ 5 N #.#.#.$.v q O.;.;.;.;.;.;.<.4.6.6.5.",
";.;.;.;.;.=.#.#.#.#.^ J a.0.N #.+.s t.u.A [ ;.;.;.;.;.>.<.6.6.<.",
";.;.;.;.;.=.&.$.#.#.b L S.s.1 #.+.$ b.S.l ) ;.;.;.;.;.;.>.<.<.>.",
";.;.;.;.;.;.;.&.%.%.N L S.s.= h h # b.S.l ) ;.;.;.;.;.;.;.;.;.;.",
";.;.;.;.;.;.;.;.;.[ w L S.s.$ 2 2 # b.S.l g | ;.;.;.;.;.;.;.;.;.",
";.;.;.;.;.;.;.[ _ e % L B.p.k  .W 6 j.D.l % g _ | ;.;.;.;.;.;.;.",
";.;.;.;.&.` ` 3 . 0 9 K h.X. . . . .o.k.c t : . f [ | ;.;.;.;.;.",
";.;.;.&.[ @ X m ; < p U T T T T T T T T I u - 7 i X 3 @.;.;.;.:.",
";.;.;.}   T Y Y : , y y y y y y y y y y y y > 8 Y T M + ;.;.;.1.",
";.;.;.}   T  . .Y P p y y y y y y y y y y x R  . . .M + ;.;.1.4.",
";.;.;.&.} O R  . . .E T T T T T T T T T T !  . . .m 3 *.;.;.<.2.",
";.;.;.;.&.{ 4 o o z T  . . . . . . . . . .T 8 o o e @.;.;.;.;.<.",
";.;.;.;.;.;.[ * 9.Z ; ; ; ; ; ; ; ; ; ; ; & Q F w | ;.;.;.;.;.;.",
";.;.;.;.;.;.n w.m.g.i.i.i.i.i.i.i.i.i.i.i.i.l.z...~ ;.;.;.;.;.;.",
";.;.;.;.;.;.* f.S.S.S.S.S.S.S.S.S.S.S.S.S.S.S.S.y.r ;.;.;.;.;.;.",
";.;.;.;.;.;.* f.D.S.S.S.S.S.S.S.S.S.S.S.S.S.S.D.y.r ;.;.;.;.;.;.",
";.;.;.;.;.;.* d.D.D.S.S.S.S.S.S.S.S.S.S.S.S.D.Z.e.r ;.;.;.;.;.;.",
";.;.;.;.;.;.* d.Z.D.D.S.S.S.S.S.S.S.S.S.S.D.D.C.e.r ;.;.;.;.;.;.",
";.;.;.;.;.;.d r.b.Z.D.D.D.D.D.D.D.D.D.D.D.D.Z.z.L V ;.;.;.;.;.;.",
";.;.;.;.;.;.;.d r.v.C.A.A.A.A.A.A.A.A.A.A.C.z.F a ;.;.;.;.;.;.;.",
";.;.;.;.;.;.;.;.v r.b.z.b.M.M.M.M.M.M.v.z.b.G g ;.;.;.;.;.;.;.;.",
";.;.;.;.;.;.;.;.>.,.C # S v.v.v.v.v.v.j # ) -.;.;.;.;.;.;.;.;.;.",
";.;.;.;.;.;.;.;.>.B 0.N.N.S.S.S.S.S.S.N.N.F / ;.;.;.;.;.;.;.<.<.",
";.;.;.;.;.;.;.;.>.n q.Z.C.S.S.S.S.S.S.C.A.D ~ ;.;.;.;.;.>.,.4.6.",
";.;.;.;.;.;.;.;.C 0.b.Z.C.D.D.M.C.F.D.C.Z.x.K ( ;.;.;.;.,.6.6.6.",
";.;.;.;.;.;.;.;.r u.D.Z.C.D.n.V.F.C.S.C.Z.D.L B ;.;.;.;.>.,.4.6.",
";.;.;.;.;.;.;.;.' H d.Z.C.C.v.V.Z.b.S.C.Z.D.L B ;.;.;.;.;.;.<.<.",
";.;.;.;.;.;.>.>.>.' J s.D.D.M.b.b.M.S.D.u.8.H ] ;.;.;.;.;.;.;.;.",
";.;.;.;.;.>.<.3.3.3.C L S.c.e.7.7.e.r.m.l q ] ;.;.;.;.;.;.;.;.;.",
";.;.;.;.>.,.3.3.3.3.C L c.9.d d d d d w.j ) ;.;.;.;.;.;.;.;.;.;.",
";.;.;.;.>.3.3.3.3.3.C G 0.B ;.;.;.;.-.n q ' ;.;.;.;.;.;.;.;.;.;."
};
