/* XPM */
static char *e8a5be2e710348038d0fd1a9c271b463sEVahy00KlmXyO6E[] = {
/* columns rows colors chars-per-pixel */
"32 32 76 1 ",
"  c #C0D470",
". c #BED36F",
"X c #B6CE6C",
"o c #A9C565",
"O c #A4C263",
"+ c #A8C565",
"@ c #BDD26F",
"# c #C9D772",
"$ c #D9DC75",
"% c #EAE178",
"& c #DADC75",
"* c #BAD06D",
"= c #A5C364",
"- c #D7DB74",
"; c #E7E077",
": c #E7E078",
"> c #C4D571",
", c #D3DA74",
"< c #D5DA74",
"1 c #BED26F",
"2 c #B5CD6B",
"3 c black",
"4 c #BFD36F",
"5 c #C6D671",
"6 c #D1D973",
"7 c #C7D671",
"8 c #B3CC6A",
"9 c #ADC867",
"0 c #E7E7E7",
"q c #BFD370",
"w c #241D0D",
"e c #B8CF6D",
"r c #B0CA69",
"t c #928263",
"y c #AEC968",
"u c #82634B",
"i c #C8D672",
"p c #ACC767",
"a c #8A7357",
"s c #714333",
"d c #C2D570",
"f c #C3D571",
"g c #DDDD75",
"h c #B7CE6C",
"j c #D0D973",
"k c #E0DE76",
"l c #CECECE",
"z c #E1E1E1",
"x c #A67596",
"c c #C4D671",
"v c #C6D872",
"b c #CEDE76",
"n c #D2E077",
"m c #C8D973",
"M c gray73",
"N c #D2DA73",
"B c #D5DB74",
"V c #DDDDDD",
"C c gray84",
"Z c #CBDB74",
"A c #CED873",
"S c #E5E077",
"D c gray89",
"F c #CFD973",
"G c #C2D571",
"H c #F1EEEE",
"J c #C3D671",
"K c #CACACA",
"L c gray85",
"P c #D2DA74",
"I c #D6DB74",
"U c #C1D570",
"Y c #C4D772",
"T c #D1DF77",
"R c #CEDD75",
"E c #C8DA73",
/* pixels */
"     .XoOOOOOOOOO+@        #$%%&",
"     *=OOOOOOOOOO+@        -;%%:",
"     *=OOOOOOOOOO+@        >,%%<",
"     12oOOOOOOO33X4         5667",
"       89999993003              ",
"              30031q            ",
"            ww3003ww            ",
"    errrr8wwtt3003ttww          ",
"   *yOOwwwuttt3003tttuww       i",
"   pOwwaawsuttttttttuswaww    d&",
"   pwtaaawsssssssssssswaatw  fg;",
"   hwttttaussssssssssuttttw  djk",
"    hwtttttttttttttttttttw     6",
"      wwwwattttttttttawww       ",
"         wwwwwwwwwwwwww         ",
"         3ll00000000003         ",
"         3ll00000000003         ",
"         3l000000003003         ",
"         3l000000003003         ",
"         3llz000000300x3        ",
"         3lllz0000000003        ",
"         c3lllzzz0000003        ",
"        vbn3llllllll003         ",
"        mnnn33MMMM3333       dNB",
"        mnnnn3VVCC3nZ       >AS%",
"        mn3n3000Dzz3Z       F%%%",
"        G3H300000Dz3J       >AS%",
"         3K30L0000z3         dPI",
"     UYYYY330L0000z33           ",
"     cTnnn3L00  003333          ",
"    vRnnnn300033333333          ",
"    Ennnnnn333    333           "
};
