/* XPM */
static char *_d5c524ca15942dff142c60f6620db8dtMWoRhfUggaLIIDd[] = {
/* columns rows colors chars-per-pixel */
"32 32 141 2 ",
"   c #000000",
".  c #0B0B07",
"X  c #0E1008",
"o  c #14150D",
"O  c #16180D",
"+  c gray8",
"@  c #1D2011",
"#  c #262715",
"$  c #292110",
"%  c #262A16",
"&  c #2C261A",
"*  c #2A2D1C",
"=  c #362616",
"-  c #312917",
";  c #352C1A",
":  c #3A2E1C",
">  c #2C341B",
",  c #34331A",
"<  c #3A311E",
"1  c #232323",
"2  c #2D2B27",
"3  c #2E2E2E",
"4  c #2E3120",
"5  c #373125",
"6  c #3E3420",
"7  c #383E20",
"8  c #303030",
"9  c #453724",
"0  c #453B26",
"q  c #483C28",
"w  c #5F3A2A",
"e  c #3C4223",
"r  c #404525",
"t  c #4F452F",
"y  c #544B2C",
"u  c #4D562D",
"i  c #4B582D",
"p  c #51562E",
"a  c #52592F",
"s  c #424731",
"d  c #4F4635",
"f  c #44453C",
"g  c #524731",
"h  c #574832",
"j  c #5A4F37",
"k  c #575C31",
"l  c #52573D",
"z  c #64402F",
"x  c #694C38",
"c  c #724434",
"v  c #774F3C",
"b  c #61553C",
"n  c #5E6635",
"m  c #586835",
"M  c #626635",
"N  c #63643A",
"B  c #646D3A",
"V  c #6A6D3A",
"C  c #69743C",
"Z  c #72793F",
"A  c #544147",
"S  c gray34",
"D  c gray35",
"F  c #605641",
"G  c #6C5A42",
"H  c #7B5541",
"J  c #5D644F",
"K  c #616A41",
"L  c #76644A",
"P  c #76694D",
"I  c #747841",
"U  c #7A7E44",
"Y  c #68645B",
"T  c #656565",
"R  c #777777",
"E  c #787876",
"W  c gray48",
"Q  c #805F48",
"!  c #866D52",
"~  c #897055",
"^  c #8C765A",
"/  c #8F7B5E",
"(  c #907D5F",
")  c #8F7F60",
"_  c #917F61",
"`  c #728745",
"'  c #7D8445",
"]  c #768C47",
"[  c #77824B",
"{  c #7F8748",
"}  c #84924D",
"|  c #8B964E",
" . c #8C9B51",
".. c #8DA053",
"X. c #94A456",
"o. c #9CAC5B",
"O. c #A1AF5C",
"+. c #928263",
"@. c #81837C",
"#. c #A7B962",
"$. c #ABBB63",
"%. c #A4C263",
"&. c #ABC365",
"*. c #ADC867",
"=. c #B1C367",
"-. c #B2C669",
";. c #B5CB6A",
":. c #BBCE6C",
">. c #BDD26F",
",. c #BFD370",
"<. c #C0D470",
"1. c #C9D772",
"2. c #C6D872",
"3. c #CCDA73",
"4. c #D3DB74",
"5. c #DBDC75",
"6. c #E0DE76",
"7. c #D2E077",
"8. c #E6E077",
"9. c #E7E078",
"0. c #EAE178",
"q. c #8B8984",
"w. c #8B8B8B",
"e. c #959595",
"r. c #9A9A96",
"t. c #9E9D9B",
"y. c #A48B9C",
"u. c #A09E9A",
"i. c #AAA59D",
"p. c #A2A2A2",
"a. c #A9A9A9",
"s. c #B1AFAB",
"d. c #B2B2B1",
"f. c #BCBCBC",
"g. c #C5BFC3",
"h. c #C5C5C5",
"j. c #CCCCCC",
"k. c #D0CCC4",
"l. c #D2D2D2",
"z. c #DBDBDB",
"x. c #E6E6E6",
/* pixels */
"<.<.<.<.<.>.;.&.%.%.%.%.%.%.%.%.%.&.>.<.<.<.<.<.<.<.<.1.5.0.0.5.",
"<.<.<.<.<.>.%.%.%.%.%.%.%.%.] > i &.>.<.<.<.<.<.<.<.<.4.8.0.0.9.",
"<.<.<.<.<.>.%.%.%.%.%.%.%.` J e.@.i >.<.<.<.,.<.<.<.<.2.4.0.0.4.",
"<.<.<.<.<.>.;.&.%.%.%.%.%.m D x.d.@ >.<.<.<.<.<.<.<.<.<.2.4.4.2.",
"<.<.<.<.<.<.<.;.*.*.*.} C 7 D x.d.o Z Z :.<.<.<.<.<.<.<.<.<.<.<.",
"<.<.<.<.<.<.<.<.<. .{ N g & D x.d.. g g ' { =.<.<.<.<.<.<.<.<.<.",
"<.<.<.<.<.<.<. .| y q P +.d D x.d.o +.+.t 9 U | $.<.<.<.<.<.<.<.",
"<.<.<.<.-. . .0 $ x ~ _ +.F Y k.i.5 +.+./ Q : ; I X.$.<.<.<.<.<.",
"<.<.<.;.} < ; ! - w H ! ^ ^ ^ ^ ^ ^ ^ ^ Q c = G h : V $.<.<.<.1.",
"<.<.<. .; +.^ ^ 6 z c c c c c c c c c c c c : G ^ / b n <.<.<.5.",
"<.<.<...< ) +.+.+.! v c c c c c c c c c c Q ~ ( +.+.b M <.<.5.8.",
"<.<.<.;.X.- +.+.+.+.+._ _ _ _ _ _ _ _ _ _ +.+.+.+.j V :.<.<.4.6.",
"<.<.<.<.;.X.- - - L _ +.+.+.+.+.+.+.+.+.+.^ 0 - - I ;.<.<.<.<.4.",
"<.<.<.<.<.>.O.O., ; < < < < < < < < < < < : $ ' O.=.<.<.<.<.<.<.",
"<.<.<.<.<.<.<.<.# q.s.s.s.s.s.s.s.s.s.s.u.t.2 } <.<.<.<.<.<.<.<.",
"<.<.<.<.<.<.<.<.@ d.x.w.p.x.x.x.x.x.x.x.z.l.8 } <.<.<.<.<.<.<.<.",
"<.<.<.<.<.<.<.<.@ d.x.D W x.x.x.x.x.x.x.x.l.8 } <.<.<.<.<.<.<.<.",
"<.<.<.<.<.<.<.C A g.x.D W x.x.x.x.x.x.x.z.l.8 } <.<.<.<.<.<.<.<.",
"<.<.<.<.<.<.,.X y.z.x.e.a.x.x.x.x.x.x.z.j.j.8 } <.<.<.<.<.<.<.<.",
"<.<.<.<.<.<.,.X h.x.x.x.x.x.x.x.x.x.z.j.j.e.l o.<.<.<.<.<.<.<.<.",
"<.<.<.<.<.<.,.e r.z.x.x.x.x.z.z.z.z.j.j.t.s o.<.<.<.<.<.<.<.<.<.",
"<.<.<.<.<.<.<.<.e r.f.d.a.f.j.j.j.h.a.a.4 #.<.<.<.<.<.<.<.<.<.<.",
"<.<.<.<.<.<.<.<.2.e O O . S f.f.f.p.  o -.<.<.<.<.<.<.<.<.<.<.<.",
"<.<.<.<.<.<.<.<.2.4.7.3.N T l.z.z.f.o 2.2.:.>.<.<.<.<.<.<.<.4.4.",
"<.<.<.<.<.<.<.<.2.7.7.k E z.x.x.x.x.j.. :.% X.<.<.<.<.<.2.3.8.0.",
"<.<.<.<.<.<.<.<.2.7.7.p W x.x.x.x.x.x.j.* d.f  .<.<.<.<.3.0.0.0.",
"<.<.<.<.<.<.<.<.<.2.4.p W x.x.x.x.x.z.x.+ d.8 } <.<.<.<.2.3.8.0.",
"<.<.<.<.<.<.<.<.<.<.B O W x.x.x.x.x.z.x.+ 8 [ &.<.<.<.<.<.<.4.4.",
"<.<.<.<.<.<.2.2.2.B O   3 e.x.x.x.x.x.x.e.+ X.<.<.<.<.<.<.<.<.<.",
"<.<.<.<.<.2.4.7.7.,       3 T T T W x.x.x.1 X.<.<.<.<.<.<.<.<.<.",
"<.<.<.<.2.3.7.7.7.{ @     * n n n K R R R K $.<.<.<.<.<.<.<.<.<.",
"<.<.<.<.2.7.7.7.7.7.{ k a } <.<.<.&.u u u &.<.<.<.<.<.<.<.<.<.<."
};
