/* XPM */
static char *_9136bc1ce1a4ef399a86494d9190b1f0latp2YBntzmqySj[] = {
/* columns rows colors chars-per-pixel */
"32 32 137 2 ",
"   c #27200F",
".  c #2A2312",
"X  c #2D2814",
"o  c #26211A",
"O  c #2D2719",
"+  c #222124",
"@  c #272629",
"#  c #383223",
"$  c #33352C",
"%  c #422C1C",
"&  c #4A3221",
"*  c #493825",
"=  c #503524",
"-  c #4E422D",
";  c #54402C",
":  c #51482F",
">  c #434634",
",  c #544534",
"<  c #524A30",
"1  c #5A4C35",
"2  c #5D4C3B",
"3  c #5B5237",
"4  c #5C5238",
"5  c #714333",
"6  c #744837",
"7  c #774F3C",
"8  c #64543C",
"9  c #79533F",
"0  c #636D37",
"q  c #646E38",
"w  c #66723A",
"e  c #6D723C",
"r  c #6D7A3E",
"t  c #414043",
"y  c #564E41",
"u  c #585A54",
"i  c #635948",
"p  c #7B5641",
"a  c #7D5A44",
"s  c #646C44",
"d  c #647044",
"f  c #697246",
"g  c #6D7648",
"h  c #6D7B49",
"j  c #737B4A",
"k  c #787E4C",
"l  c #6A6D5F",
"z  c #727A50",
"x  c #797F56",
"c  c #616163",
"v  c #696A66",
"b  c #67666B",
"n  c #6B6B6F",
"m  c #73766B",
"M  c #706F71",
"N  c #737374",
"B  c #7B7E74",
"V  c #7C7B7C",
"C  c #876D53",
"Z  c #847155",
"A  c #897055",
"S  c #8B7559",
"D  c #8A7A5C",
"F  c #907E60",
"G  c #7D8445",
"H  c #75804C",
"J  c #7B864F",
"K  c #7E8757",
"L  c #7F8955",
"P  c #828C4A",
"I  c #8A954E",
"U  c #8D984F",
"Y  c #818C52",
"T  c #859153",
"R  c #889455",
"E  c #8E9B58",
"W  c #9CB85E",
"Q  c #928263",
"!  c #84857D",
"~  c #9C8D72",
"^  c #9E9176",
"/  c #A0BE61",
"(  c #A4C263",
")  c #AAC666",
"_  c #ADC867",
"`  c #AEC968",
"'  c #B4CB6B",
"]  c #B9CD6C",
"[  c #BCD16E",
"{  c #C2CF70",
"}  c #C0D470",
"|  c #C9D772",
" . c #C6D872",
".. c #CBDA74",
"X. c #D3DA74",
"o. c #DBDC75",
"O. c #E0DE76",
"+. c #D2E077",
"@. c #E6E077",
"#. c #E7E078",
"$. c #EAE178",
"%. c #7D7C82",
"&. c #848485",
"*. c #8B8A83",
"=. c #878788",
"-. c #8B8A8C",
";. c #929487",
":. c #949394",
">. c #9B9A9C",
",. c #A29F9A",
"<. c #A09FA0",
"1. c #A2A0A2",
"2. c #BCA4B4",
"3. c #BFADBA",
"4. c #C2BBAE",
"5. c #CAC4B9",
"6. c #BFBFC0",
"7. c #C1C1C1",
"8. c #CBCACE",
"9. c #CECDD2",
"0. c #D1D1D4",
"q. c #D7D8D3",
"w. c #D8D9D3",
"e. c #DBDBDB",
"r. c #DEDEE3",
"t. c #E2DFE1",
"y. c #E6E6E7",
"u. c #E8E7E7",
"i. c #E6E6E8",
"p. c #EAE6EA",
"a. c #EBE6EA",
"s. c #EBE6E9",
"d. c #ECE6EA",
"f. c #ECE7EB",
"g. c #EFE5EC",
"h. c #EFE6ED",
"j. c #F0E5ED",
/* pixels */
"} } } } } [ ] ) ( ( ( ( ( ( ( ( ( ) [ } } } } } } } } | o.$.$.o.",
"} } } } [ [ ( ( ( ( ( ( ( ( ( ( ( ) [ } } } } } } } } X.@.$.$.#.",
"} } } } [ [ ( ( ( ( ( ( ( / ( ( ( ) [ [ [ } } } } } }  .X.$.$.X.",
"} } } } [ [ ' ) ( ( ( ( s @ h ( ) ' s @ L [ } } } } } }  .X.X. .",
"} } } } } } } ' _ _ _ d -.y.V h ' s :.y.N Y } } } } } } } } } } ",
"} } } } } } } } } } } g -.y.V H ] s :.y.N Y } } } } } } } } } } ",
"} } } } } } } } } } [ f -.y.V o . o :.y.N J [ } } } } } } } } } ",
"} } } } ] ' ' ' ) ) e o -.y.V i Q y :.y.N o G ' [ } } } } } } } ",
"} } } [ ` ( / W 0   ; , -.4.~ Q Q Q ^ 5.N 2 * . P ' [ } } } } | ",
"} } } ) ( / q . 1 , & 9 A F F F F F F F C 7 % 8 - . P [ } } } o.",
"} } } ) ( w 1 D S 1 = 5 5 5 5 5 5 5 5 5 5 5 & 8 S D - I } } o.@.",
"} } } ] ) r 3 D Q D C p 6 6 6 6 6 6 6 6 6 a S Q Q D : U } } X.O.",
"} } } } ] ) r 4 D D D Q Q Q Q Q Q Q Q Q Q Q D D D < U } } } } X.",
"} } } } } } } G X O 2 Z D D D D D D D D D Z , . X I } } } } } } ",
"} } } } } } } ] z :.*.# # # # # # # # # # # ,.V Y ] } } } } } } ",
"} } } } } } } j &.y.y.y.y.e.e.y.y.y.y.e.e.y.y.u.n T } } } } } } ",
"} } } } } } } j &.y.y.y.y.V -.y.y.y.y.N :.y.y.i.n T } } } } } } ",
"} } } } } } } j %.r.y.y.y.V -.y.y.y.y.N :.y.y.r.b T } } } } } } ",
"} } } } } } } j %.r.y.y.u.-.>.y.t.y.y.&.1.y.y.r.b T } } } } } } ",
"} } } } } } } J V 0.y.y.d.j.s.e.2.3.e.d.j.s.y.8.v E } } } } } } ",
"} } } } } } } } J V 0.u.s.g.s.-.>.=.<.d.g.s.8.u P } } } } } } } ",
"} } } } } } } } } J ;.q.8.e.y.y.y.y.y.e.8.w.l P } } } } } } } } ",
"} } } } } } } }  ...} x t >.y.y.y.y.y.&.t K ' } } } } } } } } } ",
"} } } } } } } }  .+.k -.y.y.y.y.y.y.y.y.y.N Y } } } } } } } X.X.",
"} } } } } } } }  .{ x >.r.r.y.y.y.y.y.r.i.&.K ' } } } }  ...@.$.",
"} } } } } } } }  .k -.y.r.r.y.y.y.y.y.r.i.y.M Y } } } [ ..$.$.$.",
"} } } } } } } } } j -.y.r.r.y.y.y.y.y.r.i.y.M Y } } } }  ...@.$.",
"} } } } } } } } } Y ! 7.9.i.y.y.y.y.y.r.8.7.m E } } } } } } X.X.",
"} } } } } }  . . . .Y $ -.y.0.6.6.6.0.y.N $ E } } } } } } } } } ",
"} } } } }  .X.+.+.+.+.j -.8.N > > > &.0.N Y } } } } } } } } } } ",
"} } } }  ...+.+.+.+.+.j N B R } } } H *.c Y } } } } } } } } } } ",
"} } } }  .+.+.+.+.+.+.k + H } } } } } s + Y } } } } } } } } } } "
};
