/* XPM */
static char *_15a31d1525a470efe52334130c9b141GOjkQk2QzYGxP43c[] = {
/* columns rows colors chars-per-pixel */
"32 32 151 2 ",
"   c #231D16",
".  c #271F18",
"X  c #291F18",
"o  c #1F271C",
"O  c #1E2C1D",
"+  c #1C341E",
"@  c #262217",
"#  c #23221A",
"$  c #2C211A",
"%  c #242A1E",
"&  c #31221A",
"*  c #3B251E",
"=  c #3E2E1E",
"-  c #20391E",
";  c #3D3B1E",
":  c #1D2E20",
">  c #1C3423",
",  c #1A3B25",
"<  c #232E20",
"1  c #2A2C20",
"2  c #3F2620",
"3  c #312A20",
"4  c #3A2A21",
"5  c #213523",
"6  c #2D3622",
"7  c #223820",
"8  c #3D3023",
"9  c #422720",
"0  c #442A23",
"q  c #4D2B24",
"w  c #532D26",
"e  c #572E28",
"r  c #5A2F28",
"t  c #4F3325",
"y  c #4C3B23",
"u  c #5E302A",
"i  c #64322C",
"p  c #2B411F",
"a  c #37491F",
"s  c #384B1F",
"d  c #164525",
"f  c #174A24",
"g  c #1A4D25",
"h  c #15452B",
"j  c #134D2C",
"k  c #0F5C2E",
"l  c #1C5023",
"z  c #12532D",
"x  c #115B2C",
"c  c #0E622E",
"v  c #0D6B2F",
"b  c #1F6927",
"n  c #12602B",
"m  c #176B2E",
"M  c #1B6B2C",
"N  c #0E742F",
"B  c #14762E",
"V  c #1A772C",
"C  c #147B2F",
"Z  c #1C7C2D",
"A  c #0C6630",
"S  c #0C6D30",
"D  c #0D7230",
"F  c #414E1F",
"G  c #44521F",
"H  c #434220",
"J  c #4B4022",
"K  c #454A21",
"L  c #4B4A22",
"P  c #455520",
"I  c #4E5B23",
"U  c #566925",
"Y  c #586B25",
"T  c #5B7625",
"R  c #5F7C27",
"E  c #1C842E",
"W  c #1F882D",
"Q  c #22812B",
"!  c #238C2D",
"~  c #2A8D2A",
"^  c #3A812D",
"/  c #26912C",
"(  c #2A942C",
")  c #2D992B",
"_  c #329D2B",
"`  c #35A22A",
"'  c #38A52A",
"]  c #3EAB29",
"[  c #59972D",
"{  c #5D9B2F",
"}  c #638729",
"|  c #6E932B",
" . c #6F9B2B",
".. c #70972B",
"X. c #45A52E",
"o. c #41AF29",
"O. c #4CBC27",
"+. c #45B328",
"@. c #4BB729",
"#. c #4EBC28",
"$. c #50BE27",
"%. c #52BE28",
"&. c #5FB92F",
"*. c #76A22D",
"=. c #7AAC2E",
"-. c #7CB02F",
";. c #7FB530",
":. c #56C129",
">. c #5CC32A",
",. c #65C62C",
"<. c #68C72C",
"1. c #6BC82D",
"2. c #71CB2F",
"3. c #7ACE31",
"4. c #7FD032",
"5. c #80B630",
"6. c #83BC31",
"7. c #83BC32",
"8. c #85BF31",
"9. c #84BC32",
"0. c #84BD32",
"q. c #88C632",
"w. c #8AC733",
"e. c #8ECD34",
"r. c #8CCF34",
"t. c #83D132",
"y. c #82D132",
"u. c #84D233",
"i. c #86D233",
"p. c #88D333",
"a. c #8BD433",
"s. c #89D433",
"d. c #8BD334",
"f. c #8FD335",
"g. c #8AD434",
"h. c #8BD434",
"j. c #8DD534",
"k. c #8DD535",
"l. c #8CD434",
"z. c #8ED535",
"x. c #8FD535",
"c. c #8FD635",
"v. c #92D335",
"b. c #90D635",
"n. c #91D635",
"m. c #91D735",
"M. c #92D735",
"N. c #93D736",
"B. c #93D836",
"V. c #94D836",
"C. c #95D836",
/* pixels */
"i i i i i i i i i i i i i i i i i i i i i i i i i i i i i i i i ",
"i i i i q $                                         X q i i i i ",
"i i i i q & @ @ @ @ @ @ @ @ @ @ @ @ @ @ @ @ @ @ @ @ $ q i i i i ",
"i i u e y K F F F F F F F F F F F F F F F F F F F F F y e u i i ",
"i i e q L T } } } } } } } } } } } } } } } } } } } } R L 0 e i i ",
"i i w = I *.0.6.0.0.0.0.0.6.6.6.0.0.6.0.0.0.0.0.6.6.=.I * e i i ",
"i e t H T 6.c.h.c.C.C.B.c.p.p.h.b.b.c.c.b.C.C.c.a.c.q.T ; t e i ",
"i 0 J Y  .q.i.3.i.b.C.b.3.2.2.3.h.h.3.4.b.C.b.y.2.i.r. .U y 0 i ",
"i & K | 0.r.3.1.3.b.C.c.2.>.>.1.i.y.1.2.c.C.b.3.>.3.v.0...K & i ",
"i @ P =.f.p.2.>.2.c.C.h.<.#.$.>.3.3.>.1.h.C.b.2.$.2.c.f.-.G   i ",
"i   P -.a.3.<.>.2.c.C.h.<.O.O.:.1.1.>.<.h.C.b.2.O.<.3.d.5.G   i ",
"i   P -.y.1.>.>.2.c.C.h.<.O.O.$.>.>.:.<.h.C.b.2.O.>.<.y.5.G   i ",
"i   P =.3.>.O.:.2.c.C.a.<.O.O.O.O.O.$.<.h.C.b.1.O.O.:.3.;.G   i ",
"i   s [ &.$.O.$.<.3.4.3.>.@.] ' ' ] @.,.3.4.3.<.O.O.$.&.{ a   i ",
"i   p ^ X.@.O.$.>.<.<.<.:.+._ ! ! _ +.:.<.<.<.>.O.O.#.X.^ p   i ",
"i   - M ( o.O.O.$.$.%.%.#.o.! B C ! ] #.$.%.$.#.O.O.+.( M -   i ",
"i   + n W ` +.@.+.o.+.@.+.` Z A v Z _ +.@.+.o.+.O.+.' W c +   i ",
"i   + n C / ' +.' _ ] +.` ! m k x m ! ` +.] ) ] @.` / C c +   i ",
"i   + x N C ) ] _ ! ` +.( B x j j x B ( +.` W _ @.) C N c +   i ",
"i   + x S N ! ` / C ( ' Q x j h h j n Q ' ( C / o.! D S x +   i ",
"i   + z c D E / W C W ~ b d , > > , f b ~ W D W ) E S c z O   i ",
"i   O h k v C C C D C V g O o o o o + l V C D C E C S k h O   i ",
"i X % , z c S S S v v n , $ $ $ $ $ @ , n v S S S S v z , % X i ",
"i * 3 5 h x c c c k x g 6 * * * * * * 6 g x c c c c k h 5 3 * i ",
"i q 0 1 , j z z z z d 7 8 w w w w w q 8 7 d z z z z j , % 0 q i ",
"i i q & O h h h h h > $ q i i i i i i q $ > h h h h h O $ q i i ",
"i i e 2 1 > , , , , o $ 9 e e e e e w 9 $ o , , , , , 1 * e i i ",
"i i r q 4 < : : : O # . & 2 2 2 2 2 * & . # O : : : < 4 q u i i ",
"i i i e 0 $ # # # # # . $ $ $ $ $ $ $ $   # # # # # $ 0 u i i i ",
"i i i i w * & & & & & & & & & & & & & & & & & & & & & w i i i i ",
"i i i i e 9 * * * * * * * * * * * * * * * * * * * * * e i i i i ",
"i i i i i i i i i i i i i i i i i i i i i i i i i i i i i i i i "
};
